<svg width="231" height="41" viewBox="0 0 231 41" fill="none" xmlns="http://www.w3.org/2000/svg">
<path d="M63.7437 24.6289C63.7437 25.3857 63.646 26.0531 63.4507 26.6309C63.2635 27.2087 62.995 27.7091 62.645 28.1323C62.3032 28.5555 61.8963 28.9095 61.4243 29.1943C60.9523 29.4792 60.4355 29.707 59.874 29.8779C59.3206 30.0488 58.7306 30.1709 58.104 30.2441C57.4855 30.3174 56.8548 30.354 56.2119 30.354C55.3656 30.354 54.5843 30.2889 53.8682 30.1587C53.152 30.0366 52.4766 29.8413 51.8418 29.5728C51.2152 29.2961 50.6089 28.9421 50.0229 28.5107C49.4451 28.0794 48.8674 27.5545 48.2896 26.936L50.7798 24.4092C51.0076 24.9707 51.321 25.4915 51.7197 25.9717C52.1185 26.4437 52.5539 26.8506 53.0259 27.1924C53.506 27.5342 54.0024 27.8027 54.5151 27.998C55.0278 28.1934 55.512 28.291 55.9678 28.291C56.5049 28.291 57.0094 28.2544 57.4814 28.1812C57.9535 28.0998 58.3644 27.9696 58.7144 27.7905C59.0643 27.6115 59.3369 27.3755 59.5322 27.0825C59.7357 26.7814 59.8374 26.4071 59.8374 25.9595C59.8374 25.6177 59.7601 25.3247 59.6055 25.0806C59.4508 24.8364 59.2474 24.6289 58.9951 24.458C58.751 24.279 58.4702 24.1284 58.1528 24.0063C57.8354 23.8843 57.5099 23.7826 57.1763 23.7012C56.8507 23.6117 56.5293 23.5343 56.2119 23.4692C55.8945 23.396 55.6138 23.3228 55.3696 23.2495C54.8895 23.1112 54.389 22.9647 53.8682 22.8101C53.3473 22.6473 52.8346 22.4642 52.3301 22.2607C51.8255 22.0573 51.3454 21.8254 50.8896 21.5649C50.4421 21.2964 50.0474 20.9831 49.7056 20.625C49.3638 20.2588 49.0911 19.8397 48.8877 19.3677C48.6842 18.8875 48.5825 18.3382 48.5825 17.7197C48.5825 16.9792 48.672 16.3241 48.8511 15.7544C49.0382 15.1766 49.2987 14.6761 49.6323 14.2529C49.966 13.8298 50.3607 13.4757 50.8164 13.1909C51.2721 12.8979 51.7726 12.666 52.3179 12.4951C52.8631 12.3161 53.4409 12.1899 54.0513 12.1167C54.6698 12.0353 55.3005 11.9946 55.9434 11.9946C56.8223 11.9946 57.6198 12.076 58.3359 12.2388C59.0602 12.4015 59.7275 12.6335 60.3379 12.9346C60.9482 13.2357 61.5057 13.5978 62.0103 14.021C62.5229 14.436 63.0031 14.8999 63.4507 15.4126L60.9604 17.9395C60.7651 17.3535 60.4925 16.8245 60.1426 16.3525C59.8008 15.8805 59.4183 15.4777 58.9951 15.144C58.5719 14.8022 58.1284 14.5418 57.6646 14.3628C57.2007 14.1756 56.7531 14.082 56.3218 14.082C55.7603 14.082 55.2435 14.1227 54.7715 14.2041C54.2995 14.2773 53.8926 14.4035 53.5508 14.5825C53.2171 14.7534 52.9567 14.9894 52.7695 15.2905C52.5824 15.5835 52.4888 15.9497 52.4888 16.3892C52.4888 16.7391 52.5579 17.0361 52.6963 17.2803C52.8346 17.5244 53.0177 17.7319 53.2456 17.9028C53.4816 18.0737 53.7461 18.2161 54.0391 18.3301C54.332 18.4359 54.6331 18.5295 54.9424 18.6108C55.2598 18.6922 55.569 18.7655 55.8701 18.8306C56.1794 18.8875 56.4601 18.9526 56.7124 19.0259C57.2007 19.1642 57.7134 19.3107 58.2505 19.4653C58.7876 19.62 59.3166 19.8031 59.8374 20.0146C60.3582 20.2181 60.8547 20.4541 61.3267 20.7227C61.7987 20.9912 62.2137 21.3127 62.5718 21.687C62.9299 22.0532 63.2147 22.4805 63.4263 22.9688C63.6379 23.4489 63.7437 24.0023 63.7437 24.6289ZM65.6602 23.9697C65.6602 23.3268 65.7131 22.6595 65.8188 21.9678C65.9328 21.276 66.0915 20.5843 66.2949 19.8926C66.5065 19.2008 66.7588 18.5173 67.0518 17.8418C67.3447 17.1663 67.6743 16.5194 68.0405 15.9009H71.0557C70.8522 16.5112 70.6691 17.1501 70.5063 17.8174C70.3517 18.4766 70.2174 19.1398 70.1035 19.8071C69.9977 20.4663 69.9123 21.1133 69.8472 21.748C69.7902 22.3828 69.7617 22.9728 69.7617 23.5181C69.7617 23.8354 69.7739 24.1772 69.7983 24.5435C69.8309 24.9015 69.8838 25.2637 69.957 25.6299C70.0303 25.988 70.132 26.3338 70.2622 26.6675C70.4006 27.0011 70.5755 27.2982 70.7871 27.5586C70.9987 27.8109 71.255 28.0143 71.5562 28.1689C71.8654 28.3154 72.2275 28.3887 72.6426 28.3887C73.0495 28.3887 73.4116 28.2992 73.729 28.1201C74.0545 27.9329 74.3394 27.6929 74.5835 27.3999C74.8276 27.0988 75.0352 26.757 75.2061 26.3745C75.377 25.992 75.5153 25.6014 75.6211 25.2026C75.735 24.7957 75.8164 24.401 75.8652 24.0186C75.9222 23.6279 75.9507 23.278 75.9507 22.9688V15.9009H80.0767V30H78.4897L76.5977 26.7163C76.3617 27.2616 76.0728 27.758 75.731 28.2056C75.3973 28.645 75.0148 29.0234 74.5835 29.3408C74.1522 29.6582 73.672 29.9023 73.1431 30.0732C72.6222 30.2441 72.0566 30.3296 71.4463 30.3296C70.4697 30.3296 69.6193 30.1709 68.895 29.8535C68.1707 29.5361 67.5685 29.0967 67.0884 28.5352C66.6082 27.9736 66.2502 27.3063 66.0142 26.5332C65.7782 25.752 65.6602 24.8975 65.6602 23.9697ZM87.645 30H83.519V10.7129H87.645V23.3716C88.3205 22.8833 88.9837 22.3462 89.6348 21.7603C90.2939 21.1743 90.9206 20.5599 91.5146 19.917C92.1087 19.266 92.658 18.6027 93.1626 17.9272C93.6753 17.2518 94.1229 16.5763 94.5054 15.9009H97.313C96.7433 16.8612 96.0679 17.8215 95.2866 18.7817C94.5054 19.7339 93.6549 20.6453 92.7354 21.5161L97.3618 30H92.8086L89.5249 24.1162C88.9146 24.5312 88.2879 24.9137 87.645 25.2637V30ZM111.522 25.4956C111.522 26.1141 111.432 26.6634 111.253 27.1436C111.074 27.6237 110.83 28.0428 110.521 28.4009C110.212 28.7508 109.846 29.0479 109.422 29.292C108.999 29.528 108.543 29.7192 108.055 29.8657C107.575 30.0122 107.07 30.118 106.542 30.1831C106.013 30.2482 105.488 30.2808 104.967 30.2808C104.267 30.2808 103.648 30.236 103.111 30.1465C102.574 30.057 102.062 29.9146 101.573 29.7192C101.085 29.5158 100.597 29.2554 100.108 28.938C99.6283 28.6206 99.0911 28.234 98.4971 27.7783L100.902 25.813C101.122 26.228 101.41 26.6064 101.769 26.9482C102.135 27.2819 102.513 27.5708 102.904 27.8149C103.294 28.0591 103.673 28.2463 104.039 28.3765C104.405 28.5067 104.702 28.5718 104.93 28.5718C105.117 28.5718 105.329 28.5677 105.565 28.5596C105.801 28.5433 106.041 28.5189 106.285 28.4863C106.529 28.4456 106.769 28.3887 107.005 28.3154C107.241 28.2422 107.449 28.1445 107.628 28.0225C107.815 27.8923 107.962 27.7336 108.067 27.5464C108.181 27.3511 108.238 27.1191 108.238 26.8506C108.238 26.5739 108.165 26.3338 108.019 26.1304C107.88 25.9188 107.697 25.7357 107.469 25.5811C107.241 25.4264 106.981 25.2962 106.688 25.1904C106.395 25.0846 106.098 24.991 105.797 24.9097C105.504 24.8283 105.219 24.7591 104.942 24.7021C104.666 24.637 104.426 24.576 104.222 24.519C103.848 24.4132 103.453 24.3075 103.038 24.2017C102.623 24.0877 102.212 23.9616 101.805 23.8232C101.398 23.6768 101.008 23.5059 100.633 23.3105C100.267 23.1152 99.9416 22.8833 99.6567 22.6147C99.38 22.3381 99.1562 22.0166 98.9854 21.6504C98.8226 21.276 98.7412 20.8407 98.7412 20.3442C98.7412 19.4328 98.9202 18.6719 99.2783 18.0615C99.6445 17.443 100.125 16.9507 100.719 16.5845C101.313 16.2101 101.988 15.9456 102.745 15.791C103.502 15.6364 104.271 15.5591 105.052 15.5591C105.589 15.5591 106.155 15.616 106.749 15.73C107.343 15.8358 107.921 15.9985 108.482 16.2183C109.044 16.4299 109.569 16.6903 110.057 16.9995C110.545 17.3088 110.952 17.6628 111.278 18.0615L108.873 20.0391C108.694 19.5508 108.458 19.1317 108.165 18.7817C107.88 18.4318 107.567 18.147 107.225 17.9272C106.891 17.6994 106.546 17.5326 106.188 17.4268C105.838 17.321 105.512 17.2681 105.211 17.2681C104.918 17.2681 104.588 17.2803 104.222 17.3047C103.856 17.3291 103.51 17.3983 103.185 17.5122C102.867 17.6261 102.595 17.8011 102.367 18.0371C102.147 18.265 102.037 18.5824 102.037 18.9893C102.037 19.2822 102.102 19.5345 102.232 19.7461C102.371 19.9495 102.55 20.1286 102.77 20.2832C102.989 20.4297 103.237 20.5558 103.514 20.6616C103.799 20.7593 104.088 20.8488 104.381 20.9302C104.674 21.0034 104.959 21.0685 105.235 21.1255C105.512 21.1825 105.76 21.2435 105.98 21.3086C106.354 21.4144 106.749 21.5243 107.164 21.6382C107.587 21.744 108.002 21.8701 108.409 22.0166C108.816 22.1549 109.207 22.3218 109.581 22.5171C109.964 22.7043 110.297 22.9362 110.582 23.2129C110.867 23.4896 111.095 23.8151 111.266 24.1895C111.437 24.5557 111.522 24.991 111.522 25.4956ZM117.528 23.3105C118.032 23.4245 118.537 23.514 119.042 23.5791C119.546 23.6442 120.055 23.6768 120.567 23.6768C121.104 23.6768 121.601 23.6279 122.057 23.5303C122.521 23.4245 122.919 23.2536 123.253 23.0176C123.595 22.7734 123.863 22.452 124.059 22.0532C124.254 21.6545 124.352 21.158 124.352 20.564C124.352 20.0838 124.286 19.6444 124.156 19.2456C124.026 18.8468 123.831 18.505 123.57 18.2202C123.318 17.9354 123.005 17.7157 122.63 17.561C122.256 17.3983 121.821 17.3169 121.324 17.3169C120.86 17.3169 120.441 17.4023 120.067 17.5732C119.701 17.7441 119.375 17.9761 119.09 18.269C118.814 18.5539 118.574 18.8875 118.37 19.27C118.175 19.6525 118.012 20.0513 117.882 20.4663C117.752 20.8813 117.658 21.3005 117.601 21.7236C117.544 22.1468 117.516 22.5456 117.516 22.9199C117.516 22.985 117.516 23.0501 117.516 23.1152C117.516 23.1803 117.52 23.2454 117.528 23.3105ZM127.696 20.5273C127.696 21.1051 127.603 21.6219 127.416 22.0776C127.228 22.5252 126.972 22.9199 126.646 23.2617C126.329 23.6035 125.959 23.8924 125.536 24.1284C125.112 24.3644 124.661 24.5597 124.181 24.7144C123.701 24.8608 123.204 24.9666 122.691 25.0317C122.187 25.0968 121.694 25.1294 121.214 25.1294C120.604 25.1294 120.002 25.0887 119.408 25.0073C118.814 24.9178 118.228 24.7795 117.65 24.5923C117.739 25.1294 117.882 25.6421 118.077 26.1304C118.272 26.6105 118.533 27.0337 118.858 27.3999C119.184 27.758 119.583 28.0428 120.055 28.2544C120.535 28.466 121.1 28.5718 121.751 28.5718C122.183 28.5718 122.594 28.5067 122.984 28.3765C123.375 28.2463 123.733 28.0632 124.059 27.8271C124.384 27.5911 124.669 27.3104 124.913 26.9849C125.165 26.6593 125.369 26.2972 125.523 25.8984L127.306 26.5576C127.037 27.2005 126.667 27.758 126.195 28.23C125.731 28.6938 125.202 29.0804 124.608 29.3896C124.022 29.6908 123.395 29.9146 122.728 30.061C122.069 30.2075 121.414 30.2808 120.763 30.2808C119.688 30.2808 118.696 30.1017 117.784 29.7437C116.873 29.3774 116.087 28.8688 115.428 28.2178C114.769 27.5667 114.252 26.7896 113.878 25.8862C113.504 24.9829 113.316 23.9941 113.316 22.9199C113.316 21.8457 113.504 20.8569 113.878 19.9536C114.252 19.0503 114.769 18.2731 115.428 17.6221C116.087 16.971 116.873 16.4665 117.784 16.1084C118.696 15.7422 119.688 15.5591 120.763 15.5591C121.284 15.5591 121.817 15.5957 122.362 15.6689C122.907 15.7422 123.436 15.8602 123.949 16.0229C124.461 16.1776 124.946 16.381 125.401 16.6333C125.857 16.8856 126.252 17.1989 126.585 17.5732C126.927 17.9395 127.196 18.3667 127.391 18.855C127.595 19.3433 127.696 19.9007 127.696 20.5273ZM142.406 25.4956C142.406 26.1141 142.316 26.6634 142.137 27.1436C141.958 27.6237 141.714 28.0428 141.405 28.4009C141.096 28.7508 140.729 29.0479 140.306 29.292C139.883 29.528 139.427 29.7192 138.939 29.8657C138.459 30.0122 137.954 30.118 137.425 30.1831C136.896 30.2482 136.371 30.2808 135.851 30.2808C135.151 30.2808 134.532 30.236 133.995 30.1465C133.458 30.057 132.945 29.9146 132.457 29.7192C131.969 29.5158 131.48 29.2554 130.992 28.938C130.512 28.6206 129.975 28.234 129.381 27.7783L131.786 25.813C132.005 26.228 132.294 26.6064 132.652 26.9482C133.019 27.2819 133.397 27.5708 133.788 27.8149C134.178 28.0591 134.557 28.2463 134.923 28.3765C135.289 28.5067 135.586 28.5718 135.814 28.5718C136.001 28.5718 136.213 28.5677 136.449 28.5596C136.685 28.5433 136.925 28.5189 137.169 28.4863C137.413 28.4456 137.653 28.3887 137.889 28.3154C138.125 28.2422 138.333 28.1445 138.512 28.0225C138.699 27.8923 138.845 27.7336 138.951 27.5464C139.065 27.3511 139.122 27.1191 139.122 26.8506C139.122 26.5739 139.049 26.3338 138.902 26.1304C138.764 25.9188 138.581 25.7357 138.353 25.5811C138.125 25.4264 137.865 25.2962 137.572 25.1904C137.279 25.0846 136.982 24.991 136.681 24.9097C136.388 24.8283 136.103 24.7591 135.826 24.7021C135.549 24.637 135.309 24.576 135.106 24.519C134.732 24.4132 134.337 24.3075 133.922 24.2017C133.507 24.0877 133.096 23.9616 132.689 23.8232C132.282 23.6768 131.891 23.5059 131.517 23.3105C131.151 23.1152 130.825 22.8833 130.541 22.6147C130.264 22.3381 130.04 22.0166 129.869 21.6504C129.706 21.276 129.625 20.8407 129.625 20.3442C129.625 19.4328 129.804 18.6719 130.162 18.0615C130.528 17.443 131.008 16.9507 131.603 16.5845C132.197 16.2101 132.872 15.9456 133.629 15.791C134.386 15.6364 135.155 15.5591 135.936 15.5591C136.473 15.5591 137.039 15.616 137.633 15.73C138.227 15.8358 138.805 15.9985 139.366 16.2183C139.928 16.4299 140.453 16.6903 140.941 16.9995C141.429 17.3088 141.836 17.6628 142.162 18.0615L139.757 20.0391C139.578 19.5508 139.342 19.1317 139.049 18.7817C138.764 18.4318 138.451 18.147 138.109 17.9272C137.775 17.6994 137.429 17.5326 137.071 17.4268C136.721 17.321 136.396 17.2681 136.095 17.2681C135.802 17.2681 135.472 17.2803 135.106 17.3047C134.74 17.3291 134.394 17.3983 134.068 17.5122C133.751 17.6261 133.478 17.8011 133.25 18.0371C133.031 18.265 132.921 18.5824 132.921 18.9893C132.921 19.2822 132.986 19.5345 133.116 19.7461C133.255 19.9495 133.434 20.1286 133.653 20.2832C133.873 20.4297 134.121 20.5558 134.398 20.6616C134.683 20.7593 134.972 20.8488 135.265 20.9302C135.558 21.0034 135.842 21.0685 136.119 21.1255C136.396 21.1825 136.644 21.2435 136.864 21.3086C137.238 21.4144 137.633 21.5243 138.048 21.6382C138.471 21.744 138.886 21.8701 139.293 22.0166C139.7 22.1549 140.09 22.3218 140.465 22.5171C140.847 22.7043 141.181 22.9362 141.466 23.2129C141.751 23.4896 141.979 23.8151 142.149 24.1895C142.32 24.5557 142.406 24.991 142.406 25.4956ZM169.103 21.5894V21.8213C169.086 22.5049 169.013 23.2129 168.883 23.9453C168.761 24.6777 168.586 25.4102 168.358 26.1426C168.13 26.875 167.857 27.5993 167.54 28.3154C167.223 29.0316 166.865 29.7152 166.466 30.3662C166.075 31.0254 165.652 31.6398 165.196 32.2095C164.741 32.7873 164.26 33.2959 163.756 33.7354L161.937 32.6855C162.222 32.2054 162.478 31.6805 162.706 31.1108C162.942 30.5493 163.154 29.9593 163.341 29.3408C163.528 28.7223 163.687 28.0876 163.817 27.4365C163.955 26.7855 164.069 26.1385 164.159 25.4956C164.248 24.8527 164.313 24.222 164.354 23.6035C164.403 22.9769 164.427 22.3828 164.427 21.8213C164.427 21.3818 164.423 20.8854 164.415 20.332C164.415 19.7705 164.382 19.2008 164.317 18.623C164.26 18.0452 164.163 17.4837 164.024 16.9385C163.886 16.3851 163.679 15.8927 163.402 15.4614C163.133 15.0301 162.783 14.6842 162.352 14.4238C161.929 14.1634 161.4 14.0332 160.765 14.0332C160.204 14.0332 159.719 14.1309 159.312 14.3262C158.914 14.5133 158.572 14.7697 158.287 15.0952C158.01 15.4126 157.787 15.7829 157.616 16.2061C157.453 16.6292 157.323 17.0768 157.225 17.5488C157.136 18.0127 157.075 18.4847 157.042 18.9648C157.018 19.4368 157.005 19.8844 157.005 20.3076V23.7134H162.267V25.7275H157.005V30H152.159V21.0645C152.159 19.7868 152.363 18.5986 152.77 17.5C153.176 16.4014 153.75 15.4492 154.491 14.6436C155.239 13.8298 156.135 13.195 157.176 12.7393C158.226 12.2754 159.394 12.0435 160.68 12.0435C161.55 12.0435 162.364 12.1696 163.121 12.4219C163.886 12.666 164.582 13.0078 165.208 13.4473C165.835 13.8786 166.393 14.3953 166.881 14.9976C167.377 15.5916 167.788 16.2427 168.114 16.9507C168.447 17.6587 168.7 18.4074 168.871 19.1968C169.042 19.9862 169.119 20.7837 169.103 21.5894ZM186.791 22.9688C186.791 23.9941 186.636 24.9544 186.327 25.8496C186.017 26.7448 185.57 27.526 184.984 28.1934C184.398 28.8525 183.682 29.3734 182.835 29.7559C181.989 30.1383 181.029 30.3296 179.955 30.3296C179.409 30.3296 178.889 30.2482 178.392 30.0854C177.904 29.9227 177.452 29.6948 177.037 29.4019C176.63 29.1007 176.268 28.7427 175.951 28.3276C175.641 27.9126 175.397 27.4487 175.218 26.936L173.387 30H171.8V10.7129H175.926V17.5854C176.415 16.91 177 16.4136 177.684 16.0962C178.376 15.7788 179.133 15.6201 179.955 15.6201C181.029 15.6201 181.989 15.8114 182.835 16.1938C183.682 16.5763 184.398 17.0972 184.984 17.7563C185.57 18.4155 186.017 19.1927 186.327 20.0879C186.636 20.9831 186.791 21.9434 186.791 22.9688ZM182.604 22.9688C182.604 22.6107 182.583 22.2323 182.542 21.8335C182.51 21.4266 182.449 21.0238 182.359 20.625C182.27 20.2262 182.144 19.8438 181.981 19.4775C181.826 19.1113 181.627 18.7899 181.383 18.5132C181.139 18.2284 180.846 18.0046 180.504 17.8418C180.162 17.6709 179.759 17.5854 179.295 17.5854C178.872 17.5854 178.494 17.675 178.16 17.854C177.835 18.0249 177.546 18.2568 177.293 18.5498C177.049 18.8428 176.842 19.1764 176.671 19.5508C176.5 19.9251 176.362 20.3117 176.256 20.7104C176.15 21.1092 176.073 21.5039 176.024 21.8945C175.975 22.2852 175.951 22.6432 175.951 22.9688C175.951 23.335 175.967 23.7215 176 24.1284C176.04 24.5353 176.105 24.9422 176.195 25.3491C176.284 25.7479 176.406 26.1304 176.561 26.4966C176.724 26.8547 176.927 27.1761 177.171 27.4609C177.424 27.7376 177.721 27.9574 178.062 28.1201C178.412 28.2829 178.823 28.3643 179.295 28.3643C179.751 28.3643 180.15 28.2829 180.492 28.1201C180.842 27.9492 181.139 27.7254 181.383 27.4487C181.627 27.1639 181.826 26.8384 181.981 26.4722C182.144 26.0978 182.27 25.7113 182.359 25.3125C182.449 24.9137 182.51 24.515 182.542 24.1162C182.583 23.7093 182.604 23.3268 182.604 22.9688ZM203.648 30H199.522V28.3154C199.034 28.9827 198.444 29.4792 197.752 29.8047C197.069 30.1221 196.316 30.2808 195.494 30.2808C194.42 30.2808 193.46 30.0895 192.613 29.707C191.767 29.3245 191.051 28.8037 190.465 28.1445C189.879 27.4772 189.431 26.696 189.122 25.8008C188.813 24.9056 188.658 23.9453 188.658 22.9199C188.658 21.8945 188.813 20.9342 189.122 20.0391C189.431 19.1439 189.879 18.3667 190.465 17.7075C191.051 17.0402 191.767 16.5153 192.613 16.1328C193.46 15.7503 194.42 15.5591 195.494 15.5591C196.039 15.5591 196.556 15.6405 197.044 15.8032C197.541 15.966 197.993 16.1979 198.399 16.499C198.814 16.792 199.177 17.1501 199.486 17.5732C199.803 17.9883 200.051 18.4521 200.23 18.9648L202.062 15.9009H203.648V30ZM199.498 22.9199C199.498 22.5537 199.478 22.1672 199.437 21.7603C199.404 21.3534 199.343 20.9505 199.254 20.5518C199.164 20.153 199.038 19.7746 198.875 19.4165C198.721 19.0503 198.517 18.7288 198.265 18.4521C198.021 18.1673 197.724 17.9435 197.374 17.7808C197.024 17.618 196.617 17.5366 196.153 17.5366C195.689 17.5366 195.287 17.6221 194.945 17.793C194.603 17.9557 194.31 18.1795 194.066 18.4644C193.822 18.741 193.618 19.0625 193.456 19.4287C193.301 19.7949 193.179 20.1774 193.089 20.5762C193 20.9749 192.935 21.3778 192.894 21.7847C192.861 22.1834 192.845 22.5618 192.845 22.9199C192.845 23.278 192.861 23.6605 192.894 24.0674C192.935 24.4743 193 24.8771 193.089 25.2759C193.179 25.6746 193.301 26.0571 193.456 26.4233C193.618 26.7896 193.822 27.1151 194.066 27.3999C194.31 27.6766 194.603 27.9004 194.945 28.0713C195.287 28.234 195.689 28.3154 196.153 28.3154C196.576 28.3154 196.951 28.23 197.276 28.0591C197.61 27.88 197.899 27.644 198.143 27.3511C198.395 27.0581 198.607 26.7244 198.778 26.3501C198.949 25.9757 199.087 25.5892 199.193 25.1904C199.299 24.7917 199.376 24.397 199.425 24.0063C199.474 23.6076 199.498 23.2454 199.498 22.9199ZM221.312 30H219.725L217.894 26.936C217.715 27.4487 217.467 27.9126 217.149 28.3276C216.84 28.7427 216.478 29.1007 216.063 29.4019C215.656 29.6948 215.204 29.9227 214.708 30.0854C214.22 30.2482 213.703 30.3296 213.158 30.3296C212.083 30.3296 211.123 30.1383 210.277 29.7559C209.431 29.3734 208.714 28.8525 208.128 28.1934C207.542 27.526 207.095 26.7448 206.786 25.8496C206.476 24.9544 206.322 23.9941 206.322 22.9688C206.322 21.9434 206.476 20.9831 206.786 20.0879C207.095 19.1927 207.542 18.4155 208.128 17.7563C208.714 17.0972 209.431 16.5763 210.277 16.1938C211.123 15.8114 212.083 15.6201 213.158 15.6201C213.98 15.6201 214.732 15.7788 215.416 16.0962C216.108 16.4136 216.698 16.91 217.186 17.5854V10.7129H221.312V30ZM217.162 22.9688C217.162 22.6432 217.137 22.2852 217.088 21.8945C217.04 21.5039 216.962 21.1092 216.856 20.7104C216.751 20.3117 216.612 19.9251 216.441 19.5508C216.271 19.1764 216.059 18.8428 215.807 18.5498C215.562 18.2568 215.274 18.0249 214.94 17.854C214.614 17.675 214.24 17.5854 213.817 17.5854C213.353 17.5854 212.95 17.6709 212.608 17.8418C212.267 18.0046 211.974 18.2284 211.729 18.5132C211.485 18.7899 211.282 19.1113 211.119 19.4775C210.965 19.8438 210.842 20.2262 210.753 20.625C210.663 21.0238 210.598 21.4266 210.558 21.8335C210.525 22.2323 210.509 22.6107 210.509 22.9688C210.509 23.3268 210.525 23.7093 210.558 24.1162C210.598 24.515 210.663 24.9137 210.753 25.3125C210.842 25.7113 210.965 26.0978 211.119 26.4722C211.282 26.8384 211.485 27.1639 211.729 27.4487C211.974 27.7254 212.267 27.9492 212.608 28.1201C212.95 28.2829 213.353 28.3643 213.817 28.3643C214.281 28.3643 214.688 28.2829 215.038 28.1201C215.388 27.9574 215.685 27.7376 215.929 27.4609C216.181 27.1761 216.384 26.8547 216.539 26.4966C216.702 26.1304 216.828 25.7479 216.917 25.3491C217.007 24.9422 217.068 24.5353 217.101 24.1284C217.141 23.7215 217.162 23.335 217.162 22.9688ZM229.088 12.4951C229.088 12.8044 229.027 13.0973 228.905 13.374C228.791 13.6507 228.632 13.8908 228.429 14.0942C228.225 14.2977 227.985 14.4604 227.708 14.5825C227.432 14.6965 227.139 14.7534 226.83 14.7534C226.52 14.7534 226.227 14.6965 225.951 14.5825C225.682 14.4604 225.446 14.2977 225.243 14.0942C225.039 13.8908 224.876 13.6507 224.754 13.374C224.64 13.0973 224.583 12.8044 224.583 12.4951C224.583 12.1859 224.64 11.897 224.754 11.6284C224.876 11.3517 225.039 11.1117 225.243 10.9082C225.446 10.7048 225.682 10.5461 225.951 10.4321C226.227 10.3101 226.52 10.249 226.83 10.249C227.139 10.249 227.432 10.3101 227.708 10.4321C227.985 10.5461 228.225 10.7048 228.429 10.9082C228.632 11.1117 228.791 11.3517 228.905 11.6284C229.027 11.897 229.088 12.1859 229.088 12.4951ZM228.905 30H224.767V15.9131H228.905V30Z" fill="white"/>
<rect width="41" height="41" rx="10" fill="white"/>
<g clip-path="url(#clip0_32_55)">
<path d="M19.688 13.5813C19.3829 10.9665 19.0607 8.20574 19.0607 5H21.9393C21.9393 8.16973 21.6186 10.927 21.3139 13.5447C21.0657 15.6779 20.8282 17.7185 20.7841 19.8141C22.2295 18.3065 23.4938 16.7079 24.8183 15.0334C26.4513 12.9688 28.1758 10.7888 30.4425 8.5221L32.4779 10.5576C30.2366 12.7989 28.0599 14.5217 25.9935 16.1574L25.9916 16.1588C24.3084 17.4913 22.6983 18.7659 21.1859 20.2159C23.2737 20.1718 25.2981 19.9356 27.4186 19.6881C30.0334 19.3829 32.7943 19.0607 36 19.0607V21.9393C32.8304 21.9393 30.0731 21.6185 27.4555 21.3139L27.4536 21.3137C25.3208 21.0656 23.2809 20.8283 21.1859 20.7841C22.6925 22.2284 24.2902 23.4922 25.9637 24.8157L25.9663 24.818C28.031 26.4511 30.2111 28.1755 32.4779 30.4425L30.4425 32.4779C28.2011 30.2366 26.4783 28.0601 24.8429 25.9939L24.8391 25.9886L24.8358 25.9843C23.5051 24.3038 22.232 22.6962 20.7841 21.1859C20.8282 23.2815 21.0657 25.3221 21.3139 27.4553C21.6186 30.073 21.9393 32.8302 21.9393 36H19.0607C19.0607 32.7943 19.3829 30.0335 19.688 27.4187L19.6887 27.4145C19.9358 25.2955 20.1718 23.2723 20.2159 21.1859C18.768 22.6962 17.4949 24.3038 16.1642 25.9843L16.1609 25.9886L16.1571 25.9939C14.5217 28.0601 12.7989 30.2366 10.5576 32.4779L8.5221 30.4425C10.7889 28.1755 12.969 26.4511 15.0337 24.818L15.0363 24.8157C16.7098 23.4922 18.3075 22.2284 19.8141 20.7841C17.7185 20.8284 15.6779 21.0657 13.5445 21.3139C10.9269 21.6185 8.16963 21.9393 5 21.9393V19.0607C8.20574 19.0607 10.9667 19.3829 13.5814 19.6881C15.7019 19.9356 17.7263 20.1718 19.8141 20.2159C18.3011 18.7653 16.6903 17.4904 15.0065 16.1574C12.9401 14.5217 10.7634 12.7989 8.5221 10.5576L10.5576 8.5221C12.8242 10.7888 14.5487 12.9688 16.1817 15.0334C17.5062 16.7078 18.7705 18.3064 20.2159 19.814C20.1718 17.7276 19.9358 15.7045 19.6887 13.5855L19.688 13.5813Z" fill="#2D5B76"/>
</g>
<defs>
<clipPath id="clip0_32_55">
<rect width="31" height="31" fill="white" transform="translate(5 5)"/>
</clipPath>
</defs>
</svg>
